<svg width="101" height="55" viewBox="0 0 101 55" fill="none" xmlns="http://www.w3.org/2000/svg">
<path d="M3.57477 0L2.57715 9.06176L19.1211 11.8884L34.2517 13.4679V10.8076L31.5083 5.07126L3.57477 0Z" fill="#0053DF"/>
<path d="M0 8.93701H31.1758L35 14.6734V27.975L30.5938 34.709H0V8.93701Z" fill="#58D1FC"/>
<path d="M31.0504 18.7689H26.5932C25.919 17.4955 24.2335 16.5966 23.9339 16.5217C19.1021 15.1734 17.3043 18.7689 17.0795 19.1434C14.6824 23.7501 18.8399 26.4092 19.2145 26.559C22.7803 28.4466 25.6194 26.197 26.5932 24.8362C27.9791 24.8237 30.7658 24.8062 30.8257 24.8362C29.8968 29.4204 25.6194 30.966 23.5968 31.1657V32.9635H20.3756C20.3881 32.4516 20.4056 31.3755 20.3756 31.1657C11.8358 28.5066 12.8845 21.6153 12.8845 20.8288C13.2741 14.5367 18.1907 12.6141 20.6003 12.4393V10.6416H23.7466C23.7216 10.9662 23.6867 11.7802 23.7466 12.4393C28.7506 13.0685 30.7008 16.9212 31.0504 18.7689Z" fill="white"/>
<path d="M4.40966 43.3273H5.09659V47.0832C5.09659 47.471 5.00519 47.8173 4.82237 48.1219C4.64141 48.4248 4.38565 48.6639 4.05511 48.8393C3.72457 49.0129 3.33679 49.0997 2.89176 49.0997C2.44673 49.0997 2.05895 49.0129 1.72841 48.8393C1.39787 48.6639 1.14119 48.4248 0.958381 48.1219C0.777415 47.8173 0.686932 47.471 0.686932 47.0832V43.3273H1.37386V47.0278C1.37386 47.3048 1.4348 47.5513 1.55668 47.7674C1.67855 47.9816 1.85213 48.1506 2.07741 48.2743C2.30455 48.3962 2.57599 48.4571 2.89176 48.4571C3.20753 48.4571 3.47898 48.3962 3.70611 48.2743C3.93324 48.1506 4.10682 47.9816 4.22685 47.7674C4.34872 47.5513 4.40966 47.3048 4.40966 47.0278V43.3273ZM7.03343 46.4406V49H6.37974V44.7455H7.01128V45.4102H7.06667C7.16639 45.1942 7.31781 45.0206 7.52093 44.8895C7.72406 44.7565 7.98628 44.6901 8.30758 44.6901C8.59565 44.6901 8.84771 44.7491 9.06376 44.8673C9.27981 44.9837 9.44785 45.1609 9.56788 45.3991C9.68791 45.6355 9.74792 45.9347 9.74792 46.2966V49H9.09423V46.3409C9.09423 46.0067 9.00744 45.7463 8.83386 45.5598C8.66028 45.3714 8.42207 45.2773 8.11923 45.2773C7.91056 45.2773 7.72406 45.3225 7.55971 45.413C7.39721 45.5035 7.26887 45.6355 7.1747 45.8091C7.08052 45.9827 7.03343 46.1932 7.03343 46.4406ZM10.9424 49V44.7455H11.5961V49H10.9424ZM11.2748 44.0364C11.1474 44.0364 11.0375 43.993 10.9452 43.9062C10.8547 43.8194 10.8095 43.7151 10.8095 43.5932C10.8095 43.4713 10.8547 43.367 10.9452 43.2802C11.0375 43.1934 11.1474 43.15 11.2748 43.15C11.4022 43.15 11.5112 43.1934 11.6017 43.2802C11.694 43.367 11.7402 43.4713 11.7402 43.5932C11.7402 43.7151 11.694 43.8194 11.6017 43.9062C11.5112 43.993 11.4022 44.0364 11.2748 44.0364ZM14.688 44.7455V45.2994H12.3945V44.7455H14.688ZM13.0815 49V44.1582C13.0815 43.9145 13.1387 43.7114 13.2532 43.5489C13.3677 43.3864 13.5164 43.2645 13.6992 43.1832C13.882 43.102 14.0749 43.0614 14.2781 43.0614C14.4387 43.0614 14.5698 43.0743 14.6714 43.1001C14.773 43.126 14.8487 43.15 14.8985 43.1722L14.7102 43.7372C14.6769 43.7261 14.6308 43.7123 14.5717 43.6957C14.5144 43.679 14.4387 43.6707 14.3445 43.6707C14.1285 43.6707 13.9725 43.7252 13.8764 43.8342C13.7823 43.9431 13.7352 44.1028 13.7352 44.3134V49H13.0815ZM16.0252 50.5955C15.9144 50.5955 15.8156 50.5862 15.7288 50.5678C15.642 50.5511 15.582 50.5345 15.5488 50.5179L15.715 49.9418C15.8738 49.9824 16.0141 49.9972 16.136 49.9861C16.2578 49.975 16.3659 49.9205 16.46 49.8227C16.5561 49.7266 16.6438 49.5706 16.7232 49.3545L16.8451 49.0222L15.2718 44.7455H15.9809L17.1553 48.1358H17.1996L18.374 44.7455H19.0831L17.2772 49.6205C17.1959 49.8402 17.0953 50.0221 16.9752 50.1661C16.8552 50.312 16.7158 50.42 16.557 50.4902C16.4 50.5604 16.2228 50.5955 16.0252 50.5955ZM19.946 49V44.7455H20.5996V49H19.946ZM20.2783 44.0364C20.1509 44.0364 20.0411 43.993 19.9487 43.9062C19.8582 43.8194 19.813 43.7151 19.813 43.5932C19.813 43.4713 19.8582 43.367 19.9487 43.2802C20.0411 43.1934 20.1509 43.15 20.2783 43.15C20.4058 43.15 20.5147 43.1934 20.6052 43.2802C20.6975 43.367 20.7437 43.4713 20.7437 43.5932C20.7437 43.7151 20.6975 43.8194 20.6052 43.9062C20.5147 43.993 20.4058 44.0364 20.2783 44.0364ZM22.4506 46.4406V49H21.7969V44.7455H22.4285V45.4102H22.4839C22.5836 45.1942 22.735 45.0206 22.9381 44.8895C23.1412 44.7565 23.4035 44.6901 23.7248 44.6901C24.0128 44.6901 24.2649 44.7491 24.4809 44.8673C24.697 44.9837 24.865 45.1609 24.9851 45.3991C25.1051 45.6355 25.1651 45.9347 25.1651 46.2966V49H24.5114V46.3409C24.5114 46.0067 24.4246 45.7463 24.251 45.5598C24.0775 45.3714 23.8393 45.2773 23.5364 45.2773C23.3278 45.2773 23.1412 45.3225 22.9769 45.413C22.8144 45.5035 22.6861 45.6355 22.5919 45.8091C22.4977 45.9827 22.4506 46.1932 22.4506 46.4406ZM28.077 50.6841C27.7612 50.6841 27.4897 50.6435 27.2626 50.5622C27.0355 50.4828 26.8462 50.3776 26.6948 50.2464C26.5452 50.1172 26.4261 49.9787 26.3375 49.831L26.8582 49.4653C26.9173 49.5429 26.9921 49.6315 27.0826 49.7313C27.173 49.8328 27.2968 49.9205 27.4537 49.9944C27.6125 50.0701 27.8203 50.108 28.077 50.108C28.4204 50.108 28.7039 50.0249 28.9273 49.8587C29.1507 49.6925 29.2625 49.4321 29.2625 49.0776V48.2134H29.2071C29.1591 48.2909 29.0907 48.3869 29.0021 48.5014C28.9153 48.6141 28.7897 48.7147 28.6254 48.8033C28.4629 48.8901 28.2431 48.9335 27.9662 48.9335C27.6227 48.9335 27.3143 48.8523 27.041 48.6898C26.7696 48.5273 26.5544 48.2909 26.3956 47.9807C26.2387 47.6705 26.1602 47.2937 26.1602 46.8506C26.1602 46.4148 26.2368 46.0353 26.3901 45.7121C26.5434 45.3871 26.7566 45.136 27.0299 44.9587C27.3032 44.7796 27.619 44.6901 27.9772 44.6901C28.2542 44.6901 28.474 44.7362 28.6365 44.8286C28.8008 44.919 28.9264 45.0224 29.0132 45.1388C29.1018 45.2533 29.1701 45.3474 29.2181 45.4213H29.2846V44.7455H29.9162V49.1219C29.9162 49.4875 29.8331 49.7848 29.6669 50.0138C29.5025 50.2446 29.2809 50.4136 29.0021 50.5207C28.7251 50.6296 28.4167 50.6841 28.077 50.6841ZM28.0548 48.3463C28.317 48.3463 28.5386 48.2863 28.7196 48.1663C28.9005 48.0462 29.0381 47.8736 29.1323 47.6483C29.2265 47.423 29.2735 47.1534 29.2735 46.8395C29.2735 46.533 29.2274 46.2624 29.1351 46.0279C29.0427 45.7934 28.9061 45.6097 28.7251 45.4767C28.5441 45.3437 28.3207 45.2773 28.0548 45.2773C27.7778 45.2773 27.547 45.3474 27.3623 45.4878C27.1795 45.6281 27.0419 45.8165 26.9496 46.0528C26.8591 46.2892 26.8139 46.5514 26.8139 46.8395C26.8139 47.1349 26.8601 47.3962 26.9524 47.6234C27.0466 47.8487 27.1851 48.0259 27.3679 48.1552C27.5525 48.2826 27.7815 48.3463 28.0548 48.3463ZM37.9599 45.1H37.273C37.2324 44.9024 37.1613 44.7288 37.0597 44.5793C36.96 44.4297 36.8381 44.3041 36.6941 44.2026C36.5519 44.0991 36.394 44.0216 36.2204 43.9699C36.0468 43.9182 35.8659 43.8923 35.6775 43.8923C35.3341 43.8923 35.0229 43.9791 34.7441 44.1527C34.4671 44.3263 34.2464 44.582 34.0821 44.92C33.9196 45.2579 33.8383 45.6724 33.8383 46.1636C33.8383 46.6548 33.9196 47.0694 34.0821 47.4073C34.2464 47.7452 34.4671 48.001 34.7441 48.1746C35.0229 48.3482 35.3341 48.4349 35.6775 48.4349C35.8659 48.4349 36.0468 48.4091 36.2204 48.3574C36.394 48.3057 36.5519 48.229 36.6941 48.1275C36.8381 48.0241 36.96 47.8976 37.0597 47.748C37.1613 47.5966 37.2324 47.423 37.273 47.2273H37.9599C37.9082 47.5172 37.814 47.7766 37.6774 48.0056C37.5407 48.2346 37.3708 48.4294 37.1677 48.5901C36.9646 48.7489 36.7365 48.8698 36.4836 48.9529C36.2324 49.036 35.9637 49.0776 35.6775 49.0776C35.1937 49.0776 34.7635 48.9594 34.3868 48.723C34.01 48.4866 33.7137 48.1506 33.4976 47.7148C33.2816 47.279 33.1735 46.7619 33.1735 46.1636C33.1735 45.5653 33.2816 45.0483 33.4976 44.6125C33.7137 44.1767 34.01 43.8406 34.3868 43.6043C34.7635 43.3679 35.1937 43.2497 35.6775 43.2497C35.9637 43.2497 36.2324 43.2913 36.4836 43.3744C36.7365 43.4575 36.9646 43.5793 37.1677 43.74C37.3708 43.8988 37.5407 44.0927 37.6774 44.3217C37.814 44.5488 37.9082 44.8082 37.9599 45.1ZM41.6626 47.2605V44.7455H42.3162V49H41.6626V48.2798H41.6182C41.5185 48.4959 41.3634 48.6796 41.1529 48.831C40.9424 48.9806 40.6765 49.0554 40.3552 49.0554C40.0893 49.0554 39.8529 48.9972 39.6461 48.8809C39.4393 48.7627 39.2768 48.5854 39.1586 48.3491C39.0404 48.1109 38.9813 47.8108 38.9813 47.4489V44.7455H39.635V47.4045C39.635 47.7148 39.7218 47.9622 39.8954 48.1469C40.0708 48.3315 40.2942 48.4239 40.5657 48.4239C40.7282 48.4239 40.8934 48.3823 41.0615 48.2992C41.2314 48.2161 41.3736 48.0887 41.488 47.917C41.6044 47.7452 41.6626 47.5264 41.6626 47.2605ZM46.5272 45.6983L45.9399 45.8645C45.903 45.7666 45.8485 45.6715 45.7765 45.5792C45.7064 45.485 45.6103 45.4075 45.4885 45.3465C45.3666 45.2856 45.2105 45.2551 45.0203 45.2551C44.76 45.2551 44.543 45.3151 44.3694 45.4352C44.1977 45.5533 44.1118 45.7038 44.1118 45.8866C44.1118 46.0491 44.1709 46.1775 44.2891 46.2717C44.4073 46.3658 44.5919 46.4443 44.8431 46.5071L45.4746 46.6622C45.855 46.7545 46.1385 46.8958 46.325 47.086C46.5115 47.2744 46.6047 47.5172 46.6047 47.8145C46.6047 48.0582 46.5346 48.2761 46.3942 48.4682C46.2557 48.6602 46.0618 48.8116 45.8125 48.9224C45.5632 49.0332 45.2733 49.0886 44.9428 49.0886C44.5088 49.0886 44.1497 48.9945 43.8653 48.8061C43.5809 48.6178 43.4009 48.3426 43.3252 47.9807L43.9456 47.8256C44.0047 48.0545 44.1164 48.2263 44.2808 48.3408C44.447 48.4553 44.664 48.5125 44.9317 48.5125C45.2364 48.5125 45.4783 48.4479 45.6574 48.3186C45.8384 48.1875 45.9289 48.0305 45.9289 47.8477C45.9289 47.7 45.8772 47.5763 45.7738 47.4766C45.6703 47.375 45.5115 47.2993 45.2973 47.2494L44.5882 47.0832C44.1986 46.9909 43.9124 46.8478 43.7296 46.6539C43.5486 46.4582 43.4581 46.2135 43.4581 45.9199C43.4581 45.6798 43.5255 45.4675 43.6603 45.2828C43.797 45.0982 43.9826 44.9532 44.2171 44.8479C44.4534 44.7427 44.7212 44.6901 45.0203 44.6901C45.4414 44.6901 45.7719 44.7824 46.012 44.967C46.2539 45.1517 46.4256 45.3955 46.5272 45.6983ZM49.439 44.7455V45.2994H47.2342V44.7455H49.439ZM47.8768 43.7261H48.5305V47.7812C48.5305 47.9659 48.5573 48.1044 48.6108 48.1967C48.6662 48.2872 48.7364 48.3482 48.8213 48.3795C48.9081 48.4091 48.9995 48.4239 49.0955 48.4239C49.1676 48.4239 49.2267 48.4202 49.2728 48.4128C49.319 48.4036 49.3559 48.3962 49.3836 48.3906L49.5166 48.9778C49.4722 48.9945 49.4104 49.0111 49.331 49.0277C49.2516 49.0462 49.1509 49.0554 49.0291 49.0554C48.8444 49.0554 48.6634 49.0157 48.4862 48.9363C48.3107 48.8569 48.1649 48.7359 48.0485 48.5734C47.934 48.4109 47.8768 48.206 47.8768 47.9585V43.7261ZM52.105 49.0886C51.7209 49.0886 51.3839 48.9972 51.094 48.8144C50.8059 48.6316 50.5807 48.3759 50.4182 48.0472C50.2575 47.7185 50.1772 47.3344 50.1772 46.8949C50.1772 46.4517 50.2575 46.0648 50.4182 45.7343C50.5807 45.4038 50.8059 45.1471 51.094 44.9643C51.3839 44.7815 51.7209 44.6901 52.105 44.6901C52.4891 44.6901 52.8252 44.7815 53.1133 44.9643C53.4032 45.1471 53.6285 45.4038 53.7891 45.7343C53.9516 46.0648 54.0329 46.4517 54.0329 46.8949C54.0329 47.3344 53.9516 47.7185 53.7891 48.0472C53.6285 48.3759 53.4032 48.6316 53.1133 48.8144C52.8252 48.9972 52.4891 49.0886 52.105 49.0886ZM52.105 48.5014C52.3968 48.5014 52.6368 48.4266 52.8252 48.2771C53.0135 48.1275 53.153 47.9308 53.2434 47.6871C53.3339 47.4433 53.3792 47.1793 53.3792 46.8949C53.3792 46.6105 53.3339 46.3455 53.2434 46.0999C53.153 45.8543 53.0135 45.6558 52.8252 45.5044C52.6368 45.353 52.3968 45.2773 52.105 45.2773C51.8133 45.2773 51.5732 45.353 51.3849 45.5044C51.1965 45.6558 51.0571 45.8543 50.9666 46.0999C50.8761 46.3455 50.8309 46.6105 50.8309 46.8949C50.8309 47.1793 50.8761 47.4433 50.9666 47.6871C51.0571 47.9308 51.1965 48.1275 51.3849 48.2771C51.5732 48.4266 51.8133 48.5014 52.105 48.5014ZM55.0307 49V44.7455H55.6623V45.4102H55.7176C55.8063 45.1831 55.9494 45.0067 56.147 44.8812C56.3446 44.7538 56.5819 44.6901 56.8588 44.6901C57.1395 44.6901 57.3731 44.7538 57.5596 44.8812C57.748 45.0067 57.8948 45.1831 58 45.4102H58.0444C58.1533 45.1905 58.3167 45.016 58.5346 44.8867C58.7525 44.7556 59.0138 44.6901 59.3185 44.6901C59.6989 44.6901 60.0101 44.8092 60.252 45.0474C60.4939 45.2837 60.6148 45.6521 60.6148 46.1526V49H59.9611V46.1526C59.9611 45.8386 59.8752 45.6143 59.7035 45.4795C59.5318 45.3447 59.3296 45.2773 59.0969 45.2773C58.7978 45.2773 58.566 45.3678 58.4017 45.5487C58.2373 45.7278 58.1552 45.955 58.1552 46.2301V49H57.4904V46.0861C57.4904 45.8442 57.4119 45.6494 57.2549 45.5016C57.098 45.3521 56.8958 45.2773 56.6483 45.2773C56.4784 45.2773 56.3196 45.3225 56.1719 45.413C56.026 45.5035 55.9078 45.629 55.8174 45.7897C55.7287 45.9485 55.6844 46.1322 55.6844 46.3409V49H55.0307ZM63.5938 49.0886C63.1839 49.0886 62.8303 48.9982 62.533 48.8172C62.2375 48.6344 62.0094 48.3795 61.8488 48.0527C61.69 47.724 61.6106 47.3418 61.6106 46.906C61.6106 46.4702 61.69 46.0861 61.8488 45.7537C62.0094 45.4195 62.2329 45.1591 62.5191 44.9726C62.8072 44.7842 63.1433 44.6901 63.5273 44.6901C63.7489 44.6901 63.9678 44.727 64.1838 44.8009C64.3999 44.8747 64.5965 44.9947 64.7738 45.1609C64.9511 45.3253 65.0923 45.5432 65.1976 45.8146C65.3028 46.0861 65.3555 46.4203 65.3555 46.8173V47.0943H62.0759V46.5293H64.6907C64.6907 46.2892 64.6427 46.075 64.5467 45.8866C64.4525 45.6983 64.3177 45.5496 64.1423 45.4407C63.9687 45.3317 63.7637 45.2773 63.5273 45.2773C63.267 45.2773 63.0417 45.3419 62.8515 45.4712C62.6631 45.5986 62.5182 45.7648 62.4166 45.9697C62.3151 46.1747 62.2643 46.3945 62.2643 46.629V47.0057C62.2643 47.327 62.3197 47.5994 62.4305 47.8228C62.5431 48.0444 62.6991 48.2134 62.8986 48.3297C63.098 48.4442 63.3298 48.5014 63.5938 48.5014C63.7656 48.5014 63.9207 48.4774 64.0592 48.4294C64.1995 48.3795 64.3205 48.3057 64.422 48.2078C64.5236 48.1081 64.6021 47.9844 64.6575 47.8366L65.289 48.0139C65.2225 48.2281 65.1108 48.4165 64.9538 48.579C64.7969 48.7396 64.603 48.8652 64.3722 48.9557C64.1413 49.0443 63.8819 49.0886 63.5938 49.0886ZM66.3499 49V44.7455H66.9814V45.3881H67.0257C67.1033 45.1776 67.2436 45.0067 67.4467 44.8756C67.6499 44.7445 67.8788 44.679 68.1337 44.679C68.1817 44.679 68.2417 44.6799 68.3137 44.6817C68.3857 44.6836 68.4402 44.6864 68.4771 44.6901V45.3548C68.455 45.3493 68.4042 45.341 68.3248 45.3299C68.2472 45.317 68.1651 45.3105 68.0783 45.3105C67.8715 45.3105 67.6868 45.3539 67.5243 45.4407C67.3636 45.5256 67.2362 45.6438 67.142 45.7952C67.0497 45.9448 67.0036 46.1156 67.0036 46.3077V49H66.3499ZM71.5344 49V43.3273H72.2213V48.3906H74.8583V49H71.5344ZM77.5617 49.0886C77.1776 49.0886 76.8406 48.9972 76.5507 48.8144C76.2626 48.6316 76.0373 48.3759 75.8748 48.0472C75.7142 47.7185 75.6338 47.3344 75.6338 46.8949C75.6338 46.4517 75.7142 46.0648 75.8748 45.7343C76.0373 45.4038 76.2626 45.1471 76.5507 44.9643C76.8406 44.7815 77.1776 44.6901 77.5617 44.6901C77.9458 44.6901 78.2818 44.7815 78.5699 44.9643C78.8598 45.1471 79.0851 45.4038 79.2458 45.7343C79.4083 46.0648 79.4895 46.4517 79.4895 46.8949C79.4895 47.3344 79.4083 47.7185 79.2458 48.0472C79.0851 48.3759 78.8598 48.6316 78.5699 48.8144C78.2818 48.9972 77.9458 49.0886 77.5617 49.0886ZM77.5617 48.5014C77.8534 48.5014 78.0935 48.4266 78.2818 48.2771C78.4702 48.1275 78.6096 47.9308 78.7001 47.6871C78.7906 47.4433 78.8358 47.1793 78.8358 46.8949C78.8358 46.6105 78.7906 46.3455 78.7001 46.0999C78.6096 45.8543 78.4702 45.6558 78.2818 45.5044C78.0935 45.353 77.8534 45.2773 77.5617 45.2773C77.2699 45.2773 77.0298 45.353 76.8415 45.5044C76.6531 45.6558 76.5137 45.8543 76.4232 46.0999C76.3328 46.3455 76.2875 46.6105 76.2875 46.8949C76.2875 47.1793 76.3328 47.4433 76.4232 47.6871C76.5137 47.9308 76.6531 48.1275 76.8415 48.2771C77.0298 48.4266 77.2699 48.5014 77.5617 48.5014ZM80.756 50.5955C80.6452 50.5955 80.5465 50.5862 80.4597 50.5678C80.3729 50.5511 80.3129 50.5345 80.2796 50.5179L80.4458 49.9418C80.6046 49.9824 80.745 49.9972 80.8668 49.9861C80.9887 49.975 81.0967 49.9205 81.1909 49.8227C81.2869 49.7266 81.3747 49.5706 81.4541 49.3545L81.5759 49.0222L80.0026 44.7455H80.7117L81.8862 48.1358H81.9305L83.1049 44.7455H83.814L82.008 49.6205C81.9268 49.8402 81.8261 50.0221 81.7061 50.1661C81.5861 50.312 81.4467 50.42 81.2879 50.4902C81.1309 50.5604 80.9536 50.5955 80.756 50.5955ZM85.7993 49.0997C85.5297 49.0997 85.285 49.0489 85.0653 48.9474C84.8455 48.844 84.671 48.6953 84.5418 48.5014C84.4125 48.3057 84.3479 48.0693 84.3479 47.7923C84.3479 47.5486 84.3959 47.351 84.4919 47.1996C84.5879 47.0463 84.7163 46.9263 84.8769 46.8395C85.0376 46.7527 85.2149 46.6881 85.4088 46.6456C85.6045 46.6013 85.8012 46.5662 85.9987 46.5403C86.2573 46.5071 86.4669 46.4822 86.6275 46.4656C86.79 46.4471 86.9082 46.4166 86.9821 46.3741C87.0578 46.3317 87.0956 46.2578 87.0956 46.1526V46.1304C87.0956 45.8571 87.0208 45.6447 86.8713 45.4933C86.7235 45.3419 86.4992 45.2662 86.1982 45.2662C85.8861 45.2662 85.6414 45.3345 85.4642 45.4712C85.2869 45.6078 85.1622 45.7537 85.0902 45.9088L84.4698 45.6872C84.5806 45.4287 84.7283 45.2274 84.9129 45.0834C85.0995 44.9375 85.3026 44.8359 85.5223 44.7787C85.7439 44.7196 85.9618 44.6901 86.176 44.6901C86.3127 44.6901 86.4696 44.7067 86.6469 44.7399C86.826 44.7713 86.9987 44.8369 87.1649 44.9366C87.3329 45.0363 87.4723 45.1868 87.5831 45.3881C87.6939 45.5893 87.7493 45.8589 87.7493 46.1969V49H87.0956V48.4239H87.0624C87.0181 48.5162 86.9442 48.615 86.8408 48.7202C86.7374 48.8255 86.5998 48.9151 86.4281 48.9889C86.2563 49.0628 86.0468 49.0997 85.7993 49.0997ZM85.899 48.5125C86.1576 48.5125 86.3754 48.4617 86.5527 48.3602C86.7318 48.2586 86.8666 48.1275 86.9571 47.9668C87.0495 47.8062 87.0956 47.6372 87.0956 47.4599V46.8616C87.0679 46.8949 87.007 46.9254 86.9128 46.9531C86.8205 46.9789 86.7134 47.002 86.5915 47.0223C86.4715 47.0408 86.3542 47.0574 86.2397 47.0722C86.1271 47.0851 86.0357 47.0962 85.9655 47.1054C85.7956 47.1276 85.6368 47.1636 85.4891 47.2134C85.3432 47.2614 85.225 47.3344 85.1345 47.4322C85.0459 47.5283 85.0016 47.6594 85.0016 47.8256C85.0016 48.0527 85.0856 48.2244 85.2536 48.3408C85.4235 48.4553 85.6387 48.5125 85.899 48.5125ZM89.5961 43.3273V49H88.9424V43.3273H89.5961ZM92.6437 44.7455V45.2994H90.4389V44.7455H92.6437ZM91.0815 43.7261H91.7352V47.7812C91.7352 47.9659 91.762 48.1044 91.8155 48.1967C91.8709 48.2872 91.9411 48.3482 92.026 48.3795C92.1128 48.4091 92.2042 48.4239 92.3002 48.4239C92.3723 48.4239 92.4313 48.4202 92.4775 48.4128C92.5237 48.4036 92.5606 48.3962 92.5883 48.3906L92.7213 48.9778C92.6769 48.9945 92.6151 49.0111 92.5357 49.0277C92.4563 49.0462 92.3556 49.0554 92.2338 49.0554C92.0491 49.0554 91.8681 49.0157 91.6909 48.9363C91.5154 48.8569 91.3696 48.7359 91.2532 48.5734C91.1387 48.4109 91.0815 48.206 91.0815 47.9585V43.7261ZM94.048 50.5955C93.9372 50.5955 93.8384 50.5862 93.7517 50.5678C93.6649 50.5511 93.6049 50.5345 93.5716 50.5179L93.7378 49.9418C93.8966 49.9824 94.037 49.9972 94.1588 49.9861C94.2807 49.975 94.3887 49.9205 94.4829 49.8227C94.5789 49.7266 94.6666 49.5706 94.746 49.3545L94.8679 49.0222L93.2946 44.7455H94.0037L95.1781 48.1358H95.2225L96.3969 44.7455H97.106L95.3 49.6205C95.2188 49.8402 95.1181 50.0221 94.9981 50.1661C94.8781 50.312 94.7387 50.42 94.5799 50.4902C94.4229 50.5604 94.2456 50.5955 94.048 50.5955Z" fill="black"/>
<path d="M38.6513 35V13.1818H47.6641C49.2976 13.1818 50.7074 13.4766 51.8935 14.0661C53.0866 14.6484 54.0064 15.4865 54.6527 16.5803C55.299 17.6669 55.6222 18.956 55.6222 20.4474C55.6222 21.9602 55.2919 23.2457 54.6314 24.304C53.9709 25.3551 53.0334 26.1577 51.8189 26.7116C50.6044 27.2585 49.1662 27.532 47.5043 27.532H41.8047V23.3771H46.5241C47.3196 23.3771 47.9837 23.2741 48.5163 23.0682C49.0561 22.8551 49.4645 22.5355 49.7415 22.1094C50.0185 21.6761 50.157 21.1222 50.157 20.4474C50.157 19.7727 50.0185 19.2152 49.7415 18.7749C49.4645 18.3274 49.0561 17.9936 48.5163 17.7734C47.9766 17.5462 47.3125 17.4325 46.5241 17.4325H43.9247V35H38.6513ZM50.9347 25.0284L56.3679 35H50.6151L45.2884 25.0284H50.9347ZM79.1076 24.0909C79.1076 26.4915 78.646 28.5263 77.7227 30.1953C76.7994 31.8643 75.5494 33.1321 73.9727 33.9986C72.4031 34.8651 70.6417 35.2983 68.6886 35.2983C66.7283 35.2983 64.9634 34.8615 63.3938 33.9879C61.8242 33.1143 60.5778 31.8466 59.6545 30.1847C58.7383 28.5156 58.2802 26.4844 58.2802 24.0909C58.2802 21.6903 58.7383 19.6555 59.6545 17.9865C60.5778 16.3175 61.8242 15.0497 63.3938 14.1832C64.9634 13.3168 66.7283 12.8835 68.6886 12.8835C70.6417 12.8835 72.4031 13.3168 73.9727 14.1832C75.5494 15.0497 76.7994 16.3175 77.7227 17.9865C78.646 19.6555 79.1076 21.6903 79.1076 24.0909ZM73.717 24.0909C73.717 22.6705 73.5146 21.4702 73.1097 20.4901C72.712 19.5099 72.1367 18.7678 71.3839 18.2635C70.6381 17.7592 69.7397 17.5071 68.6886 17.5071C67.6445 17.5071 66.7461 17.7592 65.9933 18.2635C65.2404 18.7678 64.6616 19.5099 64.2567 20.4901C63.859 21.4702 63.6602 22.6705 63.6602 24.0909C63.6602 25.5114 63.859 26.7116 64.2567 27.6918C64.6616 28.6719 65.2404 29.4141 65.9933 29.9183C66.7461 30.4226 67.6445 30.6747 68.6886 30.6747C69.7397 30.6747 70.6381 30.4226 71.3839 29.9183C72.1367 29.4141 72.712 28.6719 73.1097 27.6918C73.5146 26.7116 73.717 25.5114 73.717 24.0909ZM82.1864 35V13.1818H91.1992C92.8327 13.1818 94.2425 13.5014 95.4286 14.1406C96.6218 14.7727 97.5415 15.657 98.1879 16.7933C98.8342 17.9226 99.1573 19.2365 99.1573 20.7351C99.1573 22.2408 98.8271 23.5582 98.1665 24.6875C97.5131 25.8097 96.5792 26.6797 95.3647 27.2976C94.1502 27.9155 92.7085 28.2244 91.0394 28.2244H85.4783V24.0696H90.0593C90.8548 24.0696 91.5188 23.9311 92.0515 23.6541C92.5913 23.3771 92.9996 22.9901 93.2766 22.4929C93.5536 21.9886 93.6921 21.4027 93.6921 20.7351C93.6921 20.0604 93.5536 19.478 93.2766 18.9879C92.9996 18.4908 92.5913 18.1072 92.0515 17.8374C91.5117 17.5675 90.8477 17.4325 90.0593 17.4325H87.4599V35H82.1864Z" fill="black"/>
</svg>
